<mxfile host="app.diagrams.net" agent="Mozilla/5.0 (Windows NT 10.0; Win64; x64) AppleWebKit/537.36 (KHTML, like Gecko) Chrome/128.0.0.0 Safari/537.36" version="24.7.10">
  <diagram name="Page-1" id="V8hMNoDfXdUj8sJ1Yw7v">
    <mxGraphModel dx="819" dy="422" grid="0" gridSize="10" guides="1" tooltips="1" connect="1" arrows="1" fold="1" page="1" pageScale="1" pageWidth="3300" pageHeight="2339" math="0" shadow="0">
      <root>
        <mxCell id="0" />
        <mxCell id="1" parent="0" />
        <mxCell id="23oFvKBoJjDTvwnKRW_A-35" value="" style="rounded=1;whiteSpace=wrap;html=1;dashed=1;strokeColor=#d6b656;fillColor=#fff2cc;" vertex="1" parent="1">
          <mxGeometry x="882" y="883" width="142" height="283" as="geometry" />
        </mxCell>
        <mxCell id="23oFvKBoJjDTvwnKRW_A-1" value="/&lt;span style=&quot;font-size: 11pt; line-height: 107%; font-family: Arial, sans-serif;&quot; lang=&quot;EN-US&quot;&gt;RibAppMonitorService SOAP Service&amp;nbsp;&lt;/span&gt;" style="rounded=1;whiteSpace=wrap;html=1;fillColor=#dae8fc;strokeColor=#6c8ebf;" vertex="1" parent="1">
          <mxGeometry x="150" y="245" width="170" height="100" as="geometry" />
        </mxCell>
        <mxCell id="23oFvKBoJjDTvwnKRW_A-12" style="edgeStyle=orthogonalEdgeStyle;rounded=0;orthogonalLoop=1;jettySize=auto;html=1;" edge="1" parent="1" source="23oFvKBoJjDTvwnKRW_A-4" target="23oFvKBoJjDTvwnKRW_A-11">
          <mxGeometry relative="1" as="geometry" />
        </mxCell>
        <mxCell id="23oFvKBoJjDTvwnKRW_A-4" value="&lt;font style=&quot;font-size: 14px;&quot;&gt;New Relic&lt;/font&gt;" style="shape=cylinder3;whiteSpace=wrap;html=1;boundedLbl=1;backgroundOutline=1;size=15;fillColor=#d5e8d4;strokeColor=#82b366;" vertex="1" parent="1">
          <mxGeometry x="580" y="230" width="130" height="130" as="geometry" />
        </mxCell>
        <mxCell id="23oFvKBoJjDTvwnKRW_A-5" style="edgeStyle=orthogonalEdgeStyle;rounded=0;orthogonalLoop=1;jettySize=auto;html=1;entryX=0;entryY=0.5;entryDx=0;entryDy=0;entryPerimeter=0;" edge="1" parent="1" source="23oFvKBoJjDTvwnKRW_A-1" target="23oFvKBoJjDTvwnKRW_A-4">
          <mxGeometry relative="1" as="geometry" />
        </mxCell>
        <mxCell id="23oFvKBoJjDTvwnKRW_A-6" value="Middleware Agent" style="ellipse;whiteSpace=wrap;html=1;aspect=fixed;fillColor=#f8cecc;strokeColor=#b85450;" vertex="1" parent="1">
          <mxGeometry x="395" y="252" width="90" height="90" as="geometry" />
        </mxCell>
        <mxCell id="23oFvKBoJjDTvwnKRW_A-8" value="" style="image;aspect=fixed;html=1;points=[];align=center;fontSize=12;image=img/lib/azure2/general/Dashboard2.svg;" vertex="1" parent="1">
          <mxGeometry x="364.58" y="401" width="120.42" height="85" as="geometry" />
        </mxCell>
        <mxCell id="23oFvKBoJjDTvwnKRW_A-13" style="edgeStyle=orthogonalEdgeStyle;rounded=0;orthogonalLoop=1;jettySize=auto;html=1;" edge="1" parent="1" source="23oFvKBoJjDTvwnKRW_A-11" target="23oFvKBoJjDTvwnKRW_A-8">
          <mxGeometry relative="1" as="geometry" />
        </mxCell>
        <mxCell id="23oFvKBoJjDTvwnKRW_A-11" value="Reflecting the data to dashboard through NRQL" style="rounded=1;whiteSpace=wrap;html=1;fillColor=#dae8fc;strokeColor=#6c8ebf;" vertex="1" parent="1">
          <mxGeometry x="561" y="425" width="168" height="37" as="geometry" />
        </mxCell>
        <mxCell id="23oFvKBoJjDTvwnKRW_A-14" value="&lt;b&gt;/RibAdapterMonitorService&lt;/b&gt;&lt;div&gt;&lt;i style=&quot;&quot;&gt;SOAP Service&lt;/i&gt;&lt;/div&gt;" style="rounded=1;whiteSpace=wrap;html=1;fillColor=#dae8fc;strokeColor=#6c8ebf;" vertex="1" parent="1">
          <mxGeometry x="618" y="909" width="190" height="60" as="geometry" />
        </mxCell>
        <mxCell id="23oFvKBoJjDTvwnKRW_A-20" style="edgeStyle=orthogonalEdgeStyle;rounded=0;orthogonalLoop=1;jettySize=auto;html=1;entryX=0.5;entryY=0;entryDx=0;entryDy=0;" edge="1" parent="1" source="23oFvKBoJjDTvwnKRW_A-15" target="23oFvKBoJjDTvwnKRW_A-19">
          <mxGeometry relative="1" as="geometry" />
        </mxCell>
        <mxCell id="23oFvKBoJjDTvwnKRW_A-15" value="API caller" style="ellipse;whiteSpace=wrap;html=1;aspect=fixed;fontStyle=1;fillColor=#f8cecc;strokeColor=#b85450;" vertex="1" parent="1">
          <mxGeometry x="911" y="899" width="80" height="80" as="geometry" />
        </mxCell>
        <mxCell id="23oFvKBoJjDTvwnKRW_A-16" value="" style="endArrow=classic;startArrow=classic;html=1;rounded=0;entryX=0;entryY=0.5;entryDx=0;entryDy=0;exitX=1;exitY=0.5;exitDx=0;exitDy=0;" edge="1" parent="1" source="23oFvKBoJjDTvwnKRW_A-14" target="23oFvKBoJjDTvwnKRW_A-15">
          <mxGeometry width="50" height="50" relative="1" as="geometry">
            <mxPoint x="776" y="969" as="sourcePoint" />
            <mxPoint x="826" y="919" as="targetPoint" />
          </mxGeometry>
        </mxCell>
        <mxCell id="23oFvKBoJjDTvwnKRW_A-18" style="edgeStyle=orthogonalEdgeStyle;rounded=0;orthogonalLoop=1;jettySize=auto;html=1;curved=1;endArrow=oval;endFill=1;" edge="1" parent="1" source="23oFvKBoJjDTvwnKRW_A-17">
          <mxGeometry relative="1" as="geometry">
            <mxPoint x="858" y="939" as="targetPoint" />
          </mxGeometry>
        </mxCell>
        <mxCell id="23oFvKBoJjDTvwnKRW_A-17" value="Agent invoking POST&lt;div style=&quot;font-size: 10px;&quot;&gt;request and receiving XML response&lt;/div&gt;&lt;div style=&quot;font-size: 10px;&quot;&gt;of the RIB adapters&lt;/div&gt;" style="text;html=1;align=center;verticalAlign=middle;resizable=0;points=[];autosize=1;strokeColor=none;fillColor=none;fontStyle=1;fontSize=10;" vertex="1" parent="1">
          <mxGeometry x="920" y="818" width="181" height="48" as="geometry" />
        </mxCell>
        <mxCell id="23oFvKBoJjDTvwnKRW_A-23" style="edgeStyle=orthogonalEdgeStyle;rounded=0;orthogonalLoop=1;jettySize=auto;html=1;" edge="1" parent="1" source="23oFvKBoJjDTvwnKRW_A-19" target="23oFvKBoJjDTvwnKRW_A-22">
          <mxGeometry relative="1" as="geometry" />
        </mxCell>
        <mxCell id="23oFvKBoJjDTvwnKRW_A-19" value="Data&lt;div&gt;Scrapper&lt;/div&gt;" style="ellipse;whiteSpace=wrap;html=1;aspect=fixed;fontStyle=1;fillColor=#f8cecc;strokeColor=#b85450;" vertex="1" parent="1">
          <mxGeometry x="911" y="1067" width="80" height="80" as="geometry" />
        </mxCell>
        <mxCell id="23oFvKBoJjDTvwnKRW_A-37" style="edgeStyle=orthogonalEdgeStyle;rounded=0;orthogonalLoop=1;jettySize=auto;html=1;endArrow=oval;endFill=1;" edge="1" parent="1" source="23oFvKBoJjDTvwnKRW_A-21">
          <mxGeometry relative="1" as="geometry">
            <mxPoint x="950.689655172414" y="1021" as="targetPoint" />
          </mxGeometry>
        </mxCell>
        <mxCell id="23oFvKBoJjDTvwnKRW_A-21" value="Sending retrieved XML&lt;div style=&quot;font-size: 10px;&quot;&gt;to data scrapper to&lt;/div&gt;&lt;div style=&quot;font-size: 10px;&quot;&gt;generate the KPIs&amp;nbsp;&lt;span style=&quot;background-color: initial;&quot;&gt;in tabular form&lt;/span&gt;&lt;/div&gt;" style="text;html=1;align=right;verticalAlign=middle;resizable=0;points=[];autosize=1;strokeColor=none;fillColor=none;fontStyle=1;fontSize=10;" vertex="1" parent="1">
          <mxGeometry x="686" y="997" width="165" height="48" as="geometry" />
        </mxCell>
        <mxCell id="23oFvKBoJjDTvwnKRW_A-31" style="edgeStyle=orthogonalEdgeStyle;rounded=0;orthogonalLoop=1;jettySize=auto;html=1;" edge="1" parent="1" source="23oFvKBoJjDTvwnKRW_A-22" target="23oFvKBoJjDTvwnKRW_A-28">
          <mxGeometry relative="1" as="geometry" />
        </mxCell>
        <mxCell id="23oFvKBoJjDTvwnKRW_A-22" value="New Relic&lt;div&gt;Database&lt;/div&gt;" style="shape=cylinder3;whiteSpace=wrap;html=1;boundedLbl=1;backgroundOutline=1;size=15;fillColor=#d5e8d4;strokeColor=#82b366;fontStyle=1" vertex="1" parent="1">
          <mxGeometry x="1103" y="1045" width="123" height="124" as="geometry" />
        </mxCell>
        <mxCell id="23oFvKBoJjDTvwnKRW_A-25" style="edgeStyle=orthogonalEdgeStyle;rounded=0;orthogonalLoop=1;jettySize=auto;html=1;curved=1;endArrow=oval;endFill=1;" edge="1" parent="1" source="23oFvKBoJjDTvwnKRW_A-24">
          <mxGeometry relative="1" as="geometry">
            <mxPoint x="1048" y="1107" as="targetPoint" />
          </mxGeometry>
        </mxCell>
        <mxCell id="23oFvKBoJjDTvwnKRW_A-24" value="Sends data to New Relic through&lt;div&gt;New Relic Insights API&lt;/div&gt;" style="text;html=1;align=right;verticalAlign=middle;resizable=0;points=[];autosize=1;strokeColor=none;fillColor=none;fontStyle=1;fontSize=10;" vertex="1" parent="1">
          <mxGeometry x="846" y="1170" width="164" height="36" as="geometry" />
        </mxCell>
        <mxCell id="23oFvKBoJjDTvwnKRW_A-29" value="" style="group" vertex="1" connectable="0" parent="1">
          <mxGeometry x="1120.5" y="873" width="88" height="77" as="geometry" />
        </mxCell>
        <mxCell id="23oFvKBoJjDTvwnKRW_A-28" value="" style="rounded=1;whiteSpace=wrap;html=1;" vertex="1" parent="23oFvKBoJjDTvwnKRW_A-29">
          <mxGeometry width="88" height="77" as="geometry" />
        </mxCell>
        <mxCell id="23oFvKBoJjDTvwnKRW_A-26" value="" style="shape=image;verticalLabelPosition=bottom;labelBackgroundColor=default;verticalAlign=top;aspect=fixed;imageAspect=0;image=data:image/png,iVBORw0KGgoAAAANSUhEUgAAAgAAAAIACAYAAAD0eNT6AAAAAXNSR0IArs4c6QAAIABJREFUeAHtnQmYlNWZ751nJsvkztxZ7s29N5nMooAY6GpF6GqJC01XgyICEqOIiahjNDFxd0ZRZBFxiUuiqImKJhpHnTHGRNnDVk0TRQWkWWRR9k2g6a2+r7q7Cn3vnIbPFEVXn6/qW855z/fneXiquk7VWX7nPe///+0nnIB/IAACIAACIAACIAACIAACIAACIAACIAACIAACIAACIAACIAACIAACIAACIAACIAACIAACIAACIAACIAACIAACIAACIAACIAACIAACIAACIAACIAACIAACIAACIAACIAACIAACIAACIAACIAACIAACIAACIAACIAACIAACIAACIAACIAACIAACIAACIAACIAACIAACIAACIAACIAACIAACIAACIAACIAACIAACIAACIAACIAACIAACIAACIAACIAACIAACIAACIAACIAACIAACIAACIAACIAACIAACIAACIAACIAACIAACIAACIAACIAACIAACIAACIAACIAACIAACIAACIAACIAACIAACIAACIAACIAACIAACIAACIAACIAACIAACIAACIAACIAACIAACIAACIAACIAACIAACIAACIAACIAACIAACIAACIAACIAACIAACIAACIAACIAACIAACIAACIAACIAACIAACIAACIAACIAACIAACIAACIAACIAACIAACIAACIAACIAACIAACIAACIAACIAACIAACIAACIAACIAACIAACIAACIAACIAACIAACIAACIAACIAACIAACIAACIAACIAACIAACIAACIAACIAACIAACIAACIAACIAACIAACIAACIAACIAACIAACIAACIAACIAACIAACIAACIAACIAACIAACIAACIAACIAACIAACIAACIAACIAACIAACIAACIAACIAACIAACIAACIAACIAACIAACIAACIAACIAACIAACIAACIAACIAACIAACIAACIAACIAACIAACIAACIAACIAACIAACIAACIAACIAACIAACIAACIAACIAACIAACIAACIAACIAACIAACIAACIAACIAACIAACIAAC7AnYtv01y7Ius217um3b823b/si27UbbtjO2bRP+gwFiADGAGEAMlBADQkOElghNmW9Z1uNHteZr7IWT8wBSqdRX0+n0zbZtryxhUmEKYIwQA4gBxABiwEsMvJ9Op28SWsRZS1n1va2t7Z9s237Ctu00hB+OHjGAGEAMIAYUx4DQounpdPofWYkpp84S0ReE27JtO6V4sr04RvwWWxyIAcQAYsDMGBBGYAoRfZmTtmrf11Qq1de27XUQfjh9xABiADGAGNA8BtamUqk+2gsrhw6m0+mx9pF/cM1mumbMK+YVMYAYMC0GrHQ6fQkHjdW2j+l0+nrbtj/V3O2ZFrgYD5IxYgAxgBjwHgOfWZZ1m7YCq3PHbNv+EYQfu/oQA4gBxABigHMMpNPpW3TWWu36dnS3P7b8vTtQuHgwRAwgBhADamPgUxwOcGkzjp7wJ476I2jBADGAGEAMIAZMiAELJwZKTAARfQln+8P4wPwhBhADiAEDY2ANEX1RIoPRLf7vE/4mGjjpJrhXjAFbYYgBxABiwGMMWJZ1Z3QVvpuRH73DH+7u5zHAYKCw5YQYQAwgBrSNATudTn+jGymMZpFt208iaLUNWjh/GDPEAGIAMeBDDIgHCkVT5QuMWjxMAff2h/jDACIGEAOIgQjEQBoPEMoxA+I6yQhMOtyzD+4ZcQKBQAwgBrjHQDqdviFHAqP9Fo/0xYLmvqDRf8QwYgAxUEQMvBdt1T86etu2v1YENGxFYysaMYAYQAwgBrjHgLhN8P+LvAmwLOu7MABwzogBxABiADEQpRhIp9OXRt4A2LY9PUqTjrEiySEGEAOIAcSAZVmPwQDY9h+wGLAYEAOIAcQAYiBiMTAXBsC2t0Rs0rkfu0L/cfwVMYAYQAx4j4GPYABs+xAMAJw/YgAxgBhADEQsBhpgAGy7I2KTDufs3TmDIRgiBhAD3GOgAwYAQcw9iNF/xDBiADGAGCghBmAASoCGPQbYVYgYQAwgBhAD3GMABgAGAM4ZMYAYQAwgBiIYAzAAEZx07q4V/ceWF2IAMYAY8B4DMAAwAHD+iAHEAGIAMRDBGIABiOCkwzl7d85gCIaIAcQA9xiAAYABgPNHDCAGEAOIgQjGAAxABCedu2tF/7HlhRhADCAGvMcADAAMAJw/YgAxgBhADEQwBmAAIjjpcM7enTMYgiFiADHAPQZgAGAA4PwRA4gBxABiIIIxAAMQwUnn7lrRf2x5IQYQA4gB7zEAAwADAOePGEAMIAYQAxGMARiACE46nLN35wyGYIgYQAxwjwEYABgAOH/EAGIAMYAYiGAMwABEcNK5u1b0H1teiAHEAGLAewzAAMAAwPkjBhADiAHEQARjAAYggpMO5+zdOYMhGCIGEAPcYwAGAAYAzh8xgBhADCAGIhgDMAARnHTurhX9x5YXYgAxgBjwHgMwADAAcP6IAcQAYgAxEMEYgAGI4KTDOXt3zmAIhogBxAD3GIABgAGA80cMIAYQA4iBCMYADEAEJ527a0X/seWFGEAMIAa8xwAMAAwAnD9igE0MtKQs+uOmQzR94V666T+308inPqL4Axuo96R19E93ru38L96Lz0SZ+I74rviN+C130Vi9ejVNnDiRampqqG/fvp3/xftJkyZRfX295/Hl13/iiScS/hdmIObAT/5hxycMAJK/56QRdtCiPe/OnxPD5laLfrfiAF3xqy3U8+619LXb15T0v9fEtXTlr7bQ71ceIFEnJwZNTU00fvx46tGjR0FB7tmzJ911113U3Nxc9Njc1A8jUNgICDZe+KuKRRgAGICik4WqYEW70RL+XQdb6d6Zu+ibk9eVJPjdGQVR57RZu2j3wVbt41+I85gxYwoKf74wi+8WYwKKrT+/Pfx9rDEolr/KvAYDAAOgfQJUuUDQdvim40BTiia/uZN63O2/8OebAtHGPW/tpINNKW3XgdjyL1ZkJ0yY4Ho8pdRfbH+i9v1i+KvMMTAAMACuE4XKQEXb4QuxCuZi9/zp933o+xZ/vvDn/93/vg/pzVUHtFsL4ph8d7v9Cwmr2B29Zs0a6XhKrb9Qu/j8yN4At/xVrLHcNmEAYACkSSI3YPA+GkIc9jw3tlg0/rc7Qhf+fCNw3X9spYZmffYGiBP+ShXVyZMnS9e2l/pL7VdUfueGf9jrLL89GAAYAGmSyA8a/A0T4GcMbNnXQoMf3ahc/B0zkPjpJtr2SYsW60KcYV6qYA4ZMkQ6Bi/1l9qvqPzODX8/11EpdcEAwABIk0QpgYXfwCS4iYEPdzXTGQ9u0Eb8HRMw4P4Pad3O4s+mdzPmYr4jLjMrVTDFb2Vteam/1H5F5Xdu+MvmJ+hyGAAYAGmSOCYIrVZK73+P2rfOoI71Eyiz8nLKvnMuZeq+RdnafpStPf3Ie/HZyss7vyO+K35jW/qfcX3MWBEbxcVGkbzW7mymvlPWayf+jgkou2c9rdvZFCgDWbx5EeiysjJp373UHxUhL3WcbvjL5j/ochiAIpNW0BOiZf1WM7Xtnk0d9TdQZmklZZOxkv5nlp5BHfU3UtvuOWRb6reutGQdkXjcuq+FKu7Xb8vfEX/ntd+0D+njveoOB3jZRe9mF7SX+ksVxqj8zg1/1TkIBiAiCbeUQEu37KH2TY9SZtlZJQl+d0ZB1Nm++aeUbtkr3Uoppe/4jb6HIMQJfzod83fEvtBrzc82UVOLmhsHiTv8lSqYU6ZMka4tL/WX2q+o/M4Nf9V5CgYABuD4JNF6kNo3PkTZurjvwn+cKaiLU/umR8hubTi+H5gbI5nc8l/btd3tX8gE3P6bHUrmQtzeV1xSVqxour0MrdT6i+1P1L7vlj8MgGILonoCdGtf7J7PvF0TvPDnHUbIvD2E2nbPVZJkdZsDk/sjbulbSGR1/3zmB2ruEyBu71usgIrL+9zGUSn1F9ufqH2/GP5u5ymI7ymWX/XNBwGVZZ2pRurYMC104c/fI9C+9nayU4dcJy+WrCO6Z0NcX8/huH8hIyJuFqTijoHitr6XXnqpaxMwduxYamlxf95CsfVHTcyLHW+x/FXmMPUKrLgHKuHr0na6aRtl3vu2cvF3zEDmvYso3axml6suc2JiP8TtfQuJK5fPxbMJVMyNEGlxe9nuDgeIMrHlWYz4O2NxU3+xQhi173vh78xD2K+K5Vd982ED1669Q5sou3yYNuL/uQl4ZyilD21Qkmy1myMD9hjsaUhRzxDu7R+0kRDPDlD5ACFxe19xhzlxhrm4hE/8F+/FCWdubv0ri+38+qMm4sWO12/+svnxu1y9Aivugd9AOdWXPvQhZZadrZ34f24Clp1DNkyAESZo6sxd7Lf+HXNx/2w1ewE45Rb0Vd+rcHLnRrH8qm8+F0aU3qebtlPmnaHaiv/nJuDtBKWbthohglGKr9yxNrdagTzS1xHksF/7TFlPYky5Y8R7HoKHeTp2ntQrsOIeRDIgUo1aHfN3xL7Qa+a975CdUntHtkjGiU+HHt5gfOZ/IXPxloZPDkSMHitu4CHnoVh+1TcfxSDpWD9R+y3/fDPQ8eE92OLySZDDjvkrfrXFmN3/jiG4+kXslQo7jtCeXNCLZaRegRX3oFhg3L8vbumbL65c/m7bMx8mgJkJaElZ1GviWuMMwMmT1lFrCocBuOfDqPdfsfyqbz5SAZA6xOK4fyFDIm4WhDsG+r8VEOQaWLbpkHHi7+wFWP5RIwwpM0MaZKxzrFu9AivuAcdJK7XPnbf3zbsDXyGx1fVz8WyCUseP34VvHqYv3GusAXhi4R7EIgwA6xhQLL/qm4+KKIiH7mTrSn+SnzaGoC6OBwgxSro3vrrNWAMgnmkQlfyBcYZvnsNgrl6BFfcgDMg6tCEeuKONiHvcC9G++TEkXiYmYMSTHxlrAC78+UeIQyZxqEMO1rEPiuVXffM6TorvfbKaA3mkrypDIR4lbFvNSL4Mki/ne/87x/oLvcYfwJ0qfc9VDGLapDGrV2DFPTBpMguNpW33LGO2/h3T0bZnHgwAg2R5yuR1xu4BEDcEKrTm8LmZu8xNm1fF8qu+edMmtKvxdNTfYJwB6FhzM5IvAwPwT3eadwmgs0fgn+9aixhkEINd5UR8dsSgqVdgxT0wPhCsVsosPcM4A5CpG0i2lUIC1jwBwwBgS9j4HKv5GuyOv2L5Vd98d3BMKEvvf9c48XcOA6QPrIAB0Dz54BAADIAJedTUMahXYMU9MHVinXG1b51hrAFo2/IcDIDmBgAnAcIAOLkIr/rFgmL5Vd+86UHZsW6CsQZAPNPA9PnjPj5cBqhf0uceU+i/fzGlXoEV98D0YMqs/J6xBiCz6goYAM33ANz0n9uNvQrgVgU3Alq9ejVNnDiRampqqG/fvp3/xftJkyZRfX295/WQX/+JJ55I+F+YgZgDP/mHrUeK5Vd982EDD7u9zDtDjTUA2XfO9Zzwwp6PqLU3feEeYw3Ak4vCuxVwU1MTjR8/nnr06FFQkHv27El33XUXNTcXf48MN/XDCBQ2AoKNF/6q8oJ6BVbcA1Xgw2o3U3emsQag84ZAmm8BhzXPurbzR4MfBvTux+E8DEiI85gxYwoKf74wi+8WYwKKrT+/Pfx9rDEolr/KtatYftU3rxJ+GG1na0831gBkl/bHHgDNDRAeB+z9eK3Y8i9WZCdMmOB6bZRSf7H9idr3i+Efhg4UakO9AivuQSEwpnwOA+A9AZsSC6rGceWvthh3GOD7L251LbBeuItj8t3t9i8krGJ39Jo1a6R9LLX+Qu3i8yN7A9zy9xIbfvxWsfyqb94PiDrXgUMAMACq4/N3Kw4YZwBmfnBAKq5+cBcn/JUqqpMnT5b20Uv9pfYrKr9zw9+PGPFSh3oFVtwDL/A4/BYnAcIAqI7T5e+toH+45W1jTEDfKeupudWSiqsf3MUZ5qUK5pAhQ6R99FJ/qf2Kyu/c8PcjRrzUoVh+1TfvBR6H3+IyQBgAlXH6+uuvU58+fegfR9xtjAF4YPYuqbD6xVxcZlaqYIrfyvrhpf5S+xWV37nhL5ufoMvVK7DiHgQNWHX9HetNvhHQJGmCU80/qu1blkUPP/wwnXTSSUcE7JRT6eu3vsfeBPS4ex3tPtgaWtx5EeiysjJpP73UHxUhL3Wcbvirzg+K5Vd986onIOj227aYfCvg56UJLmi+qP/4PSwHDx6ka6655rgt138cOYm9AbhvVnhb/yK2vOyid7ML2kv9pQpjVH7nhr/q/KFegRX3QPUEBN1+ev97xl4GmD6wEgZAs8sAt27dSsOHDz9O/DuTfq9T6Os/XsjWBPS/70M62BTuEyjFHf5KFcwpU6ZI14eX+kvtV1R+54Z/0PlfVr9i+VXfvAwQ+3I8DliaBNnPsSYmYNmyZTRgwIBuBeufz7qUrQGYtfpg6LEkbu8rLikrVjTdXoZWav3F9idq33fLX3XuUa/AinugegLCaL+j/kbj9gJ0rLkl9GQcxlxxbePXv/41nXzyya6E6hsX/YSdCbjjtzuUxZu4vW+xAiou73MbS6XUX2x/ovb9Yvi7nacgvqdYftU3HwRU3eps2z3bOAPQtme+6wSn23yY1J/W1laaNm1acQLVszd9/ZrfszEBQx/bRE0t4Vz211VsiNv6Xnrppa4Zjx07llpaWlyvj2Lrj5qYFzveYvl3NedhfaZegRX3ICzQStuxmkncNz+bjBnxP7PsbLIt9wlOKXtNds8HweDAgQN05ZVXuhamYxJpn/4szgeIP7CBtu0P76z/QvMkRFrcXra7wwGiTGx5FiP+Tntu6j9m/vCUwOPi3gt/Zx7CflUsv+qbDxu4qvbaN//UCPEXJqZ98+Out25U8Ta93Q0bNlAikTguCRYjEv9SfhZ9/aY6bfcElN2zntbtbNIq1sTtfcUd5sQZ5uISPvFfvBcnnLm59a8sLvPrL2Y+o/hdv/nL5sfvcvUKrLgHfgPVsT6xm/beSbdRy3wD9gDUxSndslerpKzjnAfZpwULFlB5ebkn8XfE4l9iA+nrP5qvnQmouH8DrdtZ/GN1g+SOuo+/5BRMvDFRLL/qmzc9gMSjPn/4wx92Jusn//0U9nsB2jf/DOKv8LDCCy+8QL169fJF/B0TcKI4HHDN77QxAeKYvw67/U3PTRifN/H2g596BVbcAz8g6lrHnj17aPTo0Z8n6z6nnETbXu/L1gRk3h5CdmsDDIACAyCOEd92222fx9Ln4u3XseAeJ9M/fvt+5Sbglv/arvSEP11zCfqlXqyDmAPF8qu++SCg6lDn5s2bqbq6+riEfc23e7E1AK8+9SNKpcK9EYsOc6m6D8JIXnLJJcfFkp8mQBxLffPNN0k8ZW/A/R+GbgTEyX4qrvNXPbdo30xhdzuv6hVYcQ/cguL0PfGM7zPOOKNgwv71ZH6HAn559ymd47niiivok08+wV6AkPYCiFg6++yzC8aSHyZAxOr777//+Zw2NKfo3pm7qOfd6wI3Aj3vXkvi9r6HmmEsOeU49NUf46JYftU3b1ogLV68mMRDKLpLzKecfCLVv9iHzZ6AD17oS717nfj5mKqqqkjcwcy0udNtPPPmzZPGUndx5qZMHKLauXNnl3O5pyHVKc59pqz33QiIR/qKp/rtbYDw6xZ36I8/4u6Go3oFVtwDN5C4fOfVV191fYLWGaf3YHE+wLbf9KXKfkefKJdzvFnsMn7jjTe6FA4u86VrP8WT/KZPn049evT43HS5EfNivyPOKRDnFsg4NLda9NaqA3T1i1vp5Eml7xXoPWkdff/FrZ2HGUSdsnZRHp4QgbUa1orlV33zpgTe008//adHr+YIZXdJuXpgD/rkrTJt9wSIvg0eWFiExKNmS73xiSnz7vc4Ghsb6cYbbwxU+MUNU4TBKKXvrSmL3vmokZ5YuIfECXsX/vwjqnxgA50yeR39051rO/+L9+KzC5/a3PmdJxftoeUfNZL4bSlt4jdqxAncg+euXoEV94B7kIlr/O+8886SE/Y5lT1oy2v6mQBxtYIwKN0ZGKdMnKBWaDcy9/kNs//btm2jkSNHumLusC/2Vey5mTNnDoQ4pHM4wowftBW8YPvNWLH8qm/eb6Bh1pd7jX+xiTj3++JwwOoX9DknQBzz72q3f26f89+LE8mWL18OYSlRWFasWEEDBw4MVPwHDRpEa9euxRyVOEdh5ha0xU/MS5kz9QqsuAelQNPhN3v37qWLLrrIt4QtTrJ7foL6qwP+Y8opx5zwly/03f3du3dvEk+l02F+OPXh9ddfpz59+vgWS13N0WWXXUb79u3D3ED8EQMaxYBi+VXfPKdE7fS10DX+XSXeYj+7enQv2vm78tDPCxAn+101qvjnnnc1vttvv93VyWUOz6i+ipP9Hn744aLPHemKeXefifko5QE1UZ0XjDsaW986zLN6BVbcAx0moZg+yK7x7y4Ruyk755xzaNOGemrf9Chl6yoDNwLN82L02K296Zu9jz/T301/C31n+PDh9PHHH2Nro8DWxsGDB+maa64JdKtfnOw3Y8YMzEGBOShm3eO7MAVBxIBi+VXffBBQg6rTzTX+hQTRzeejRo2i3bt3f56wxUN3xL33g3iUcNP80+mnN/emfjF/hT93nKeffjotWbLk8/EENS/c6t26dSsJg5TLyu/3/fr1A3sIP9ae5jGgXoEV94BL8i7mGv9SkvnVV19NDQ0F7rNvNVPbnnnUseZmytQNLHmvQKbuW9Sx5hZq2zOfbKuFxINlTj755ECFyMslZ1xio5h+Llu2jAYMGBAo86FDh9KmTZuQ/DVP/sXEDb5r5h4IxfKrvnkOgV3KNf7FmIBbb72VxOWErlhYKUofeJ/atjxHHesnUmbVFZR95zzK1J1J2drTO/93vn/nPOpYeUXnd9q2PE/pAyvIto6/65oQpHg8HqggCRY//vGPSez2djVGQxO3OEEyaMM1btw42r9/f6Q5RznGMHZeRkG9Aivugc4B6/Uaf5kJEDfSESeBqWawa9euwB82I1icd955tHHjRuXjDZu3iKNp06YFbrLETZnwsKZgBUCcAyQ419TUkLingvgv3k+aNMmX22Pn1y/LIVEv95t/2LlBsfyqbz5s4G7b8+sa/0ILVOwaf/HFF7URw7BESjwnYebMmdqM2208lPq9AwcO0JVXXhmo+IvLL8UhqlL7iN/JTYPIB+PHj+/29sxiTd91110lXQHjpv5CuQSfH3lOiRf+qtaAegVW3ANV4Ltr1+9r/PMXqHCt4kEv3fVBVdlrr70W+DXpYs+H2CI2fWt1w4YNlEgkAhV/cfgGN2CSC7iX9STEecyYMa7nUXzXzTMWnD4VW39+PsHff3pQmWBRLH9nHlS8KpZf9c2rgN5dm0Fe4y+Cs6Ki4phHr3bXF1VlK1euDPwRtIKF2DI29dHCCxYsoPLycteiUUoSHzZsGC61DOF8EbHlX+z8TJgwwbXBL6X+YvsTte8Xw19VnhXtqldgxT1QCT+/7TCu8Rdbhfnt6vj3nj176Lvf/W7Ria/YRGPio4XF1RVid2SxLIr5/nXXXVf4qpEQRFHHmA2iTyInlPJURjH/a9aska71UusvJlai+F23/IOImWLqVCy/6psvBlaQ3w37Gv8gx+JX3eK8AHGSYikJsJikIw6JmPBoYbHbV1zRUczYi/2uc/hE3EXQr3lGPYUPIYgT/oqdI+f7kydPls6Rl/qddvB67CEAh4cb/qpjX70CK+6B6gkQ7Su9xp/B1trs2bMpFouVnAidBdndq/NoYWE6dIiJYvsg9piIpyJ2N0avZcIovfnmmyz5FMtTl++LM/xLnbchQ4ZI58pL/aX2Kyq/c8NfdZwpll/1zaueAK2u8dfYDKxfv77zcqegkwfHRwuL3bhnn312yULhhql42uL7778vFRTV68m09oXpcjM/XX1H/FbGw0v9XbWJz/60N8ANf9n8BF2uXoEV9yBowIXqF1uad955Z8mLW7bQdLnGv9D4S/lc3Mjn2muvDYyZw9TLo4VTVit9tG8VLdn4Mv1m5YP0TN0N9MjCsTRt7kiaPGsoTZ49tPO9+EyUie+I74rfiN8Wy0VczSEubXT6HsTr6NGjaefOnUX3rdix4PvHHwrwItAiLmRMvdQfRKyZVKcb/rL5Cbpcsfyqbz5owF3VLy67+eEPfxhY0hYnoOh0jX9XDEr9TBx7nj59euAnuRXzaOHWVAut2r6QXlo+gabOGU53z6wu6b/47UvL76YPti8iUWd3jBwOQZ8fcdtttxV1SVl3fUbZ8QIvY+JlF72bXdBe6jdJrIMYixv+svkPuly9AivuQdCA8+uP8jX++Sy8/C0e8tO/f//ATJSTELp7tPDB5r00Z+3TdN+8USUJfndGQdQ5d+0z1NC87zgj0NjYSDfeeGOgYxcmUhgtL3OE3xYv+PnMxB3+nFgs9nXKlCnS+fNSf7H9idr33fDPn++w/1Ysv+qbDxM4rvH3nhBz52vLli00YsSIkhOk24R0wQUXHHO9e1NLA82qf4qmzjnfd+HPNwWijdlrfkFNrYc6k/m2bdto5MiRgY5Z7BaeM2eOVDxy5wLv/Y1th2d9fX1Je7vcXoZWav1u105Uv+eWvzPPql7VK7DiHoQFHtf4B5MgxdZw0Je+iSTmPFpY7J5/aMElgQt/vhF4aMEYmrnsRRo4cGCg4j9o0CBau3YtxF+jE2LF7X2LFVJxeZ/b3FZK/cX2J2rfL4a/23kK4nuK5Vd980FAza8T1/gHI/65nIN+tHDPk0+iMbfHQxf+fCPw3Ulx6tW7R9GC4CYBX3bZZbRv3/GHHHI5433wsZzPWNzf4dJLL3U952PHjqWWlu7PIclto9j63cRSlL9TLP/cuQj7vXoFVtyDoIHjGv/wEmZQjxbu268n/fjps5SLv2PAI6LPAAAgAElEQVQGfvSLM6nvab1cC4KbZCzOdShGNIJeN6j/2HUjRFrcXlbsWi40n6JMbHmWMo9u6i/ULj7/08OASuWvKt4Vy6/65oMEj2v8j01iQbJ26hbHyMVla34lpVhFL7r5V+doI/6OCbjlxXPo1MqTPY9TiMaMGTNc7y52OOM1/NgWzMXtfcUd5sQZ5uJcDfFfvBcnnLm59a9s3vLr92sdmVqP3/xl8+N3uXoFDrkHVFX1F+nBZ1RaiYrbUon4DPvG75N12SiyRlWTde63yDr3zCPvLxtFnWU/uYfsl39F9qoVZLu8Sxyu8VeTHJ3FIfiLp/15TTqnnnEy/furVdqJv2MC/u3VQVTuwQT069ePxNUUDje8qo1b8Af/sGMgZPlV0xxd3OeL6er46FQi/oaViLdaiTiV9P+CKrLv/jeyF80nu6W5y8SJa/z1WcReHi3ct18vuvlF/bb8HfF3Xm99aRCJvhZrdoYOHUqbNm3qMobDTkJoT581g7mI1lyoUeSQWk0N6/fVVE18mpWIN5Qk+N0ZhQtryHrmCbL37f08ieIaf/0WTymPFhYn/Ol0zN8R+0KvP/r5mdSj10muTcC4ceNo//79n8ctkr5+cYs5wZyEEQMhSXG4zRyoqvorKxF/0ErELd+FP98UDB9E1i8eo4/XraXq6mrXSbjYLbaKigrci73ES7OKfbTwmPEV2u72L2QCLrl9gKvYEycppVIpiH+JsRRGUkYbEP+wYiBcZQ6hNTsRv9BKxHcGLvx5RmBrdSVdXXaKqyRcrPifc845tGHDBiRtD0lbnBfg5tHC51xYxk78HVNw1ojCD44RtzYWV6SElVjQDkQMMaB/DIQgyeE0QVVVX7YSlY+HLfz57b1aWU59erjfHSszA6NGjaLdu3cjcXsQ/9xE1N2jhcX19RyO+zuCn/96y6/PoV6nHH+PgHg8TsuXL0cM+RRDufGE9/qLHOao8ByFo84Bt5KuqvyGlYivzhdjVX+/f9bpVNmr8PW6MtF3yq+++mpqaGhA4vY5cRd6tPDoG09nu/XvmIELbzj9mL1Qw4YNO+Y2xkiGhZMh2IBN1GIgYGkOvvrm6v497ET8Y1ViX6jdzYP60+CTSzcB4va2Yrd11AIyrPHmP1r4lLKeNP63g9kbgPGvV9EpZUf2Alx33XUwkD6bx7DiE+3AjIQRA8ErdIAttA7tf4pVHT9QSIRVf76zagBVFWkCTjrppM5j1WFMftTbcB6pK26GM/oG/lv/n+8FuP70zvsgiPFFfY4xfggpYqBwDAQoz8FWna4e+A9WIr5NtcjL2t9SNYAG9jr+uKyzmz/3tVevXvTKK68gaYe81TZv/ly64zX+W/+OAZgyczi1ptzfCx4JsnCCBBuwMTkGglXpgGo/csKfPsf8ZSbgvbP6Ue+TjtwvOlfwc9+LW0rOmzcP4h+y+IvFvWr7Ava7/h3xd15X71iMWFIQSyaLBcZmnhkKSKKDrTaVqHhGJrq6lT9XETvm5Kxc8cc1/moX1kvLJxhnAF5+dxIMAAwAYgAx0G0MBKvUAdQubumrm7i77c9VfXsfZwJwjb9a8U9ZrTR1znDjDMC9c0dQysINf7DVqnZ9gb/e/AOQ6OCqpBH9v8LhuH8hQ/DRoAHUN+ceAbjGX/3i2Lx3pXHi7xwG+Hjf6m7dP5Kz+vjDHGAOVMZAcGodQM1Hb+9b2oN88u7cV0ikg/78p/3LOvcC4Bp/PRb+ko0vG2sAlmx4GQYAu4ARA4iBgjEQgEwHU2VrIv6/7EQ8FbRAB13/gcEVdPeNN+Aaf00W5W9WPmCsAXh95UMFF77KrQ60rYf5xTxgHoJR6wBqTSXi9wUtzqHVP+NJJGZNDMAzddcbawCeXXYT4kyTOIPYQmx1jIEApNr/KuniPl8M5JG+qg4LjB5CdkszkrMGyfnhhWONNQCPLByLGNMgxnRM/OgTDImIAf/VOoAaUzUV3w5t6zwkU2AvXoDkrEFynjZ3pLEG4L55FyLGNIgxiC3EVtcYCECu/a8ylYi/YZwBmHw7krMGyXny7KHGGoAps89FjGkQY7omf/QLxsR/tfa5Rqqq+gsrEW8xzQBYI6vJTuE6bdVJCAYASVB1DKJ9xKCqGPBZrv2vLl1TeYZx4n/0MINdvwpbaIq30HAIAMlXVfJFu4g91THgv2L7XKOVqLjNVANgvfICDIBiA4CTAJGEVSdhtI8YVBUDPsu1/9VZifhzxhqAh6bCACg2ALgMEMlXVfJFu4g91THgv2L7XKOdiNeZagDsm66FAVBsAH6z8kFjTwL87arwbwS0evVqmjhxItXU1JB4wqX4L95PmjSJ6uvrEe+K41214KB9vUyPz3Ltf3Wc7/0vNS6XjUJCVJwQF28w+FbAG18JLb6amppo/Pjx1KNHj+MeeOU8+bJnz5501113UXMz7oEBIdRLCKM6H/4rts81Won4IamQhnTtvu/9EDcEUiyAUW//o32rjN0DsOWTcLa4hfiPGTOmoPA7BsB5Fd+FCYAARj336DB+n+Xa/+qsRLzDd+HVxTCcdxYMgGIDhMcBexciseXviLvb1wkTJiD2Fce+DgKEPnhff14Y+q/YPtcIA6A2QLwEF5ffvrT8buP2Arz83uRQBFYc8+9ut38hQyAOB6xZsyaUPnKJQ/QTuS7sGPBZrv2vDocAsCiCXhSrti80zgCs3rEkFHEVJ/wVEnnZ55Mnh2NSgo4f1I8cxTUG/Fdsn2vESYBYXEEvrtZUC903b5QxJuD+eaOp1WoJxQCIM/xlQl+ofMgQnAMTdGyjfuTP7mLAZ7n2vzpcBogA7i6A/Sqbu/YZYwzAvHUzQhF/wV5c5ldI4GWfi9/6NX+oB3kCMVB8DPiv2D7XmErEZxh7EuDD9yIBanIiVEPzJzR17nD2JmDqnPOpoXlfaHElE3lZOZJ28UkbzMDMrxjwWa79r85KxG811gC88mJoidqvgDG5ntlrfsHeAMxd+2yoMSUTeFm5yfGEsUGodY8B/xXb5xrTg8+oNNUA2PUfhJqsdQ9G1f1rbm0kzs8GeGjBGGpqPRRqTMkEXlaues7RPkQ6yjHgs1z7Xx0eB4wFGuYC/WD7IrZ7Aep3JkMVfzEvMoGXlYc5t2gLuQQxcGwM+K/YAdRoV1f+1rS9APbkO0JP1gj+Y4O/EI/frnqYnQn4/Qc/UxJPMoGXlReaA3zuLlbBCZy8xEAAcu1/lenq+GjjDMCSBUoStpdgicpvW1JN9ETy+2xMwFPJH1BLSs399WUCLyuPSkxhnBBqHWPAf7UOoEa6uM8XrUS8wRgTMHoo2S3hXKetY9Bx6NP+xl0szgd4ZOFY2t+0S5mZlAm8rJxDLKCPEG9TYyAAuQ6mylR15b3GGIDnnlKWsE0N5CDGtevgZrp//mht9wSIvu08uFlpLMkEXlYexLyhTgg2YsBdDASj1gHU2pqI/y87EU+xNwHDB5G9b6/SpI3F4W5xCE57GrbQo4u+p50JEFcrCIOiei5lAi8rV91/Lu2nUweobefvqGP9BMq8P4Yyy86mbG0/yiZj3v7X9uusS9TZsf5uatv5e0qnDiqPKy7zwr2fAUh1cFVaiYr72RuAZ5/E4tLk5j9uF684HPBk8hptTIA45q9yt38uN5nAy8pz68L7LozpoQ3Use4uyi6t8Cb0xRiFpRXUsW4C2Yc2Ilcxy1XFrqHg1DqAmmlE/6+wfjbApSPIPtSARcVwUYmT7N5c/ZhyE/D6yoeUnfDXVXKRCbysvKs68ZlNdqqR2jc8QNna08IT/nyTUNuP2jc+2NkXzEkX5oxhHsufxwBkOtgq7ZrKUVz3Ati1iyD+zBeNeMrewwsuDd0IiJP9VFznn58w8v+WCbysPL8+/G13bnln3h2lTvjzjEBmxVhKN+9A7mKeu7paW8GqdUC1p2riv+BmAuyfPYgFZMgCEncMnLP26VCeHTB1znASt/cVbXa1gFV/JhN4Wbnq/uvWfvrgB0eO7+eJsOdj/R7ry7ydoHRDvZYxqNsccupPQBIdbLVUVfVlKxFfxcYE/OByspubsHgMMQDOAhcPEBLifN+8C33fIyAe6Sue6neoZb/WcSMTeFm5wxKvR7f8xcl9HsU6qN93moDmnVrHI+KouEMVwSp1gLXbQ878OovzAS4bRfZuLBqTF2ZrqoVW71hML787ie6dO6JkMzBt7kh6+b3JJA4ztFo87hMhE3hZuclxUdTYUo2Uee/b2oq/Yyoy71+McwIM2pAJUKKDr7p18IDeViK+X9s9Ad8eStZmnElbVCJkvrhSVoo+3realmx4mcQJe88uu4keWXgZCXGfPHto53/xXnz2bN2Nnd9ZsvGVzt+I33JjJRN4WTm38QbV384T/jTd8nfE33lt3/wYuzgNat641xu8SgfcQnui4iS7Jv6RdibgspFkQ/yRKJgbGlmCkwm8rFxWfyTKD21Qe7Z/scajrpLSOBRgRG4LWJ7Dqf7I4YCKldqYAHHMH7v9jVggkRAgDyZFJvCycvC1j1znX6wIK/5+x4eTsb49rBtd4j4chQ6hFRrW80tWovJx5Sbgoak44c+AhaHLAtW9HzKBl5XrPr6g+yfu8BfqTX78Mg51cdwx0IA8F4I0h9uEXV0xwkrEt4duBMTJfrjOH1sFBiSFYkRPJvCy8mLaMvG74va+zrF1bq9tu36P9c58vYerziG1Ju4YmKqJTwvl2QEXDCJL3N63Uc/rtE1MmhhTcZf6BMlLJvCy8iD7xqFucW9/bsLv9Ldj/UQYABiAkFS9hGbEA4RSicqpViJ+0Pc9AqOHkiWe6rf/EywC5ouAg1Do2keZwMvKdR1XWP0SD+FxBJXbq7hDYFic0E4wpr8EWeX3E7q4zxftwWeMtGvir1mJeFPJZmBUNdmT7yB7yQKyW3hcp42FE8zCAdcjXGUCLyuPOsfMsrP4GoBl58AAMN/44afmHntMF1/853aiosKqid+SSlQ8Y990LVnfvZCsUQmyzj3zyH/xXnx20zVkPTSVrFdeJLt+FdkpftdpRz3BYvzBGiCZwMvKoz4/2drT2RqA7NL+MAAwAB4VWfHPo56AMP5gBdJ0vjKBl5Wbzkc2Pm67/fP7KxsfyvXOL4rlV33zCFC9AxTzo/f8yAReVh71+c0XVG5/R33+uI9fvQIr7gH3CUT/9RZI0+dHJvCyctP5yMbHTfDz+ysbH8r1zk+K5Vd98whQvQMU86P3/MgEXlYe9fnNF1Ruf0d9/riPX70CK+4B9wlE//UWSNPnRybwsnLT+cjGx03w8/srGx/K9c5PiuVXffMIUL0DFPOj9/zIBF5WHvX5zRdUbn9Hff64j1+9AivuAfcJRP/1FkjT50cm8LJy0/nIxsdN8PP7KxsfyvXOT4rlV33zCFC9AxTzo/f8yAReVh71+c0XVG5/R33+uI9fvQIr7gH3CXTX/xSlGz+m9CdvU9uuWdS29VfUvulR6lg3njo+uJYy719MmXdHU/ad8yjzzlDK1H2LMnUDO29QcvfMapo6dzhNmzuS7ps3ih5ZeBn9dNHl9PTSH9OL74yn/1pxH82sf4IWb3iJ3t86lzbvXUkHmvbgBiHMbxDiLq5skgm8rNxtO9LvNRwka85bZP3kHrJ+OI4scavuc79FJd/1MxE/8ltRh6hL1PmTqWTNnUl2Q4Nv8c1N8PP7K52XiKwDrhwUy6/65rlOXJf9tlJkH9pIbbvnUPvHP6f2Nf9Gmfe+Q9mlA0q+25gwAKX8v2fOMHps8ZX0H+9OpD+sf54+2L6I9jRsIcu2fEueXTJAwgmVr0zgZeVe59DavJGsByaTdf453sXeEX3Zq2jrwSlkfbTJM+t8QeX2t9f5w+/V7uFTr8CKe8A6AFsbOrfq27c8TR2rr+vccvc7gZQi/t39Zuqc4fRs3U00d+2ztHZXHTW2HvScRFnPIXPDIhN4WXnJc9fYSNYTj5A1dGB4wp9vDMTegScfJbupqeQY9nu9hl1fyfPHPO5NGbdi+VXfPKuJTDVS296F1LHhXsq8dxFla08tecvebaLoTsz9KJs4K0HTl/wrvVU/ndbtWkYtqdKTKau5NCQBygReVl7KnIktb+uqMeqEP98I/OhKsnfvLMkEuF2Hun6vlPnDb9Ru9efyV6/AinuQC0PH9+mWPdS+83XqWHMzZZaeEbjg5ycaP0S+mDrEoYMX3r6Dlm56jT5p3FFSUtVxHk3tk0zgZeVFc1m7+sgx+XwRVv33mOFkr19bdLzmrzdufxc9f4YYX1PGrVh+1Tev40Smm7ZT+5ZnKPP+JZRNlocu+rlJqBjx9vu7Yu/A03XXU3Ljq7S/cVfRyVXHuTWtTzKBl5UXw6Nzy1+ckKda7Au1L0zA7uLiNHetcXxfzPzhu/ps+TtzoV6BFffAAaH8Veze3/VW57H8bO1pSkU/NxH5Leql1jdpVk3nuQPvbplFza2NMAOabEnJBF5W7nrdNTWR9f2x+oq/Ywp+8D2yG93HZ+5a4/je9fxpEq/o77EmRLH8qm9edUCk979HHevvpkxd+Lv33SScUgU7yN/dO+cCen3lQ7T1k+J3uaqeb9Palwm8rNwtj84T/hyR1f11xpOuDaqbNajzd9zOH753rPDqwkO9AivugZqJSFHbnvnUsepftdnSL5RkghRyP+r+xdIf0cptf6CUuAQSWxmhM5AJvKzczZx1Xuqn8mz/Ig2HfcEg14cCCq07Lp+7mT98R0/xF/OiWH7VNx9qcLYepLbtL1Nm+XDthd9JQH6IdBh1PLJwbOe5Ak2th0IXwVBjSDOTIxN4Wbkbdp3X+RcpwqrPE7Afuc9VHDrrjOurm/nDd2AA1Ct9gR6EEZzp1n3UvukRbXfzd5d8whBvP9sQdyycv+55amr1725tYcQI1zZkAi8rl45b3OEvzJv8+GU0hg9ydcfA7tYehzLp/GlmWNHfY81IAVmMzseBBkRrA4mb9Di31eWwoPP76Kc4h1mXMALz1s2AEQg4AcsEXlYuW3+dt/f1S5TDrmfeTOlegPz1xu1v2fyh/FjB1Y1HdJS+wEgDmRCr5ciu/j8OZrOrv1DiCVO0g2jr/vmjOw8NtFot0mQcSCwELMCq+ywTeFm5rP+d9/YPW7j9au+hqdKYK7TuuHwumz+UwwAUkF49PvY3QC1q3/W7zgfqcFnAsn4GIcoq6vzpou/Rim3zpQnZ33jQe/H7MVaZwMvKZX3ofAiPX4Icdj3iDoESAyhbf7qXy8aHcr1zgB4qrLAXvgXooQ3User77Lf48xOOCrEOss0Zy26h7Qc+lCZm3+JCIgDc25EJvKxcNn5r9BD9r/0vZCy+PVQaZ/nrjdvfsvlDOQyAQnmXN+05QFOHqH3z45Rd2t848RfJKEgxVlX3pFlDaFb9U7ihkA/mRCbwsnLZ+rPOPZOvATjvLBgAH2JMFiMoL91kyBXS8G94CZ623bMo83aNkcLvbImoEukw2n1k4WW0fvfb0iTtJUZM/61M4GXlMj6qL+fz2r5sfM464/oqGx/KSxfnMNgZLu/y4ZUCOd16gNrX/rvRwu8kpDCEWGUbE2cm6PWVP8FjiUvcUpMJvKxctv68CrDq38vG56wzrq+y8aEcBkCuwgq/UWyAtu2rpczbiUiIv0hKKsU5zLYfWjCGNux5F3sDijQCMoGXlcvWn2oB99q+bHxchd/pt2x8KIcBUCjv8qZdB2iqkdo3PkTZ5KmREf8oGQBhNsTTB99c/Ri1pnDJoNt1IRN4WbmsHa8CrPr3svE5Qsr1VTY+lMMAyFVY4TfcBGi6YQ1l3h0VKeF3ElKYW+G6tPXz2utoT8MW7A1wsTdAJvCyctn6Uy3gXtuXjc9ZZ1xfZeNDOQyAQnmXNy0L0LZdv6dsXTyS4i+Ski6iHHY/ps4ZTh9sXwQTIDEBMoGXlcvWn1cBVv172fi4Cr/Tb9n4UA4DIFdhhd8oGKBW6ugu//LIin+UDYAwHOIEQXG5oGVZMAIFjIBM4GXlBdff0fZUC7jX9mXjc4SU66tsfCiHAVAo7/KmuwpQ8fCejlVXR1r4nYQU9pa3ju298M4duEoABqCk+xF0lV9yP3PWGdfX3LHgvd5i39X8yBXS8G/kQ0kfXE3Zd86F+CdjnQx0FGQVfXps8RW099A27AnIMwKyLXxZef76y//b6xa46t/njyf/b67C7/Q7fzyl/i2e3vneljn0m5UP0lO1P6D7542mybOGej4EKeoQdYk6xeW+72+diweE5axhw+VdPrzcgG37ZClllp4B8T8q/mKRqxBbXdt8YP5F9PG+1TABOQlEJvCy8tz119V71QLutf2uxpT7mSOkXF9zx1LK+50HN9NrKx6ge+YMCy3XiLZ+s/IB2nXwo8ivZblCGv4NJ2jbds+h7NIBEP8c8YcBqD4uKU2dcz6t3rE48onDWTcygZeVO/UUevUqwKp/X2hczudchd/ptzOOYl+bWxvprdXTSdyWW5XhF3sHZtY/SS2ppsiuZ8PlXT48Ebht234duev7nQUse1W1OHVud9KsGlr+8VuRTRq5yV4m8LLy3Lq6eq9awL2239WYcj+TrT/dy3PH4va92PJ+fPFVyoQ/P7f8YumPaH/TrkiuZ7lCGv6N9i1PY6s/b6s/N+nkLxb8fWSvgLhCYMnGVyKZNHITvUzgZeW5dXX13qsAq/59V2PK/Sx3rXF8nzsWN++3frK285i8bnnkJ3+4hLbtXx+59Wy4vBceHtEJf5ZNlj/OcdGF2WfdFqpu/Zm/7vnIJY3cRC8TeFl5bl1dvVct4F7b72pMuZ+FuZaDaCt3LLL3YstfnJCn2xp2+iNMwIGm3ZFaz4UV0vCS7JLYg0EsCNPqdBYHXo8/H8BhMm/djEgljdxELxN4WXluXV299yrAqn/f1ZhyP+OeL3LH0t17cZx9+pKrtRV/Zy0/mbw2Uo8JN1zmux5edknZNO4LL6z+OwsDr4UNgGCz8MMXI2kCZAIvK+9ONESZagH32r5sfGGt46DakY3PKRcn/HHJIfPWPRuZtdy1Qhr8aXZJ7O6gFoOJ9XJZtDr0c/GGlyOTOJzELhN4WblTT6FXrwKs+veFxuV8zj1nOOPo7lVc6qfybP9ic8PUucMjcyjAYKk/fmiZJeU3c19wYfe/2MUT5e+LEwP/+NEbkTIBMoGXlXcnHKJMtYB7bV82vrDXs9/tycYnysV1/tzywhurHonEOj5eJQ39JJOMXZVNxj7zewGYXh+3hau6v+ISwdU7lkQieYjkLhN4WblMQLwKsOrfy8bHPX/Ixifu8BfmTX78Wv/ifh+i77LxcS83VO6PHVY2WX52Nhlr577YVPTfrwUVpXpEwvto3yrjk4dIfjKBl5XLEqhqAffavmx8Kta0n23Kxidu78t17b+/dZ7xa/hYpTTwr/a62EnZZOyAn0Efpbq4Ll7V/X5w/nci8ewAmcDLymUC4lWAVf9eNj7uuUQ2PnFvf9VrsdT2X1/5EAwAZ09Ab/f9+2wyton7IlPZ/1IXD35XTY8tvtL4pwjKBF5WLhMQ1QLutX3Z+FSubT/alo1PPISHay4QdwiUjY97OWd977bvtKL/F7K1sYV+BHmU6+C6eHXpt3iUsGVZxiYSmcDLymUJ1KsAq/69bHzcc4tsfPfNu5CtAbh//mhj160zb92KKOfCw7Xlv+C+uHTovy5Cyrkff1hv7t0CZQIvK3cSUaFX1QLutf1C43I+12GNe+mDM45Cr5Nne3+kr6q1P2X2uTAAHE3A4WTsYi9Bjd/GPn8+gqrFZ1K7E2claM3OWiOTiUzgZeWFhMP53KsAq/69M45Cr9xzTaFxOZ9zX8fOOEx95ajv3fa5fVFZj2wy1sx9YenSf+4LWJf+T5s7kvY0bDXOBMgEXlYuS6yqBdxr+7Lx6bLOS+2HbHy6rL9S+yEbH/fybsWUW2Hncf9k7J1Sgxm/+9OWv8Oi1IWD3x1/62BxQlSr1WKUCZAJvKxclkC9CrDq38vG56wzrq+y8XHPA7LxcS/npvHd9je7pOwxrgtJ135zX8C69d+0BwfJBF5WLkugqgXca/uy8em67t32SzY+3dZfsf2RjY97ebeCyqnwcG35SNzp7/gteLcLudD3il0w+P7xW/65TMT5ABt2LzdmL4BM4GXlsgTqVYBV/142vkLrjsvnsvHlxj7H97LxcS/npPEF+0oL+v9NNhnbw2XRcOonx0Wre58fXjjWmPsDyAReVi5LoKoF3Gv7svFxygVd9VU2Pt3Xoqx/svFxLy8oqpwKDidjv+wqOPGZ9z0CsgWC8u63+Avx+e0qM+4yJhN4WbksgXoVYNW/l42Pe46Sja9Q/HP5XDY+7uWcdL7LvmaTfQdj1793oS+UiLgsVG79FE8O/HD3O+wPBcgEXlYuS6CqBdxr+7LxFVp3XD6XjY/buszvr2x83Mu7FFUuH9KK/l85nIx9zGWxcOxn/oLA36Vt8XfF7WeLLqeWVBNrEyATeFm5LIF6FWDVv5eNj2NOyO2zbHxdxT2nz2Tj417OReu77Gc2GXs0Nxjx3v89AZwWK8e+zln7NAyAbRdkoFrAvbYvEwjuOUs2Po5rMrfPsvFxL+9SWDl8mFlafno2GTvMfQHp3v/cxYD3/m39OywnzxpKOw9uKiiAuicY2Ra+rFw2Pq8CrPr3svHpvv5l/ZONz4lzrq+y8XEv56D1XfYRD/rxf2u/q8XOdeFy6vdzf7wVBqDAXgDVAu61fZlAdLXmOH0mGx+nddhVX2Xj417epbjq/uHhxbFRnBYJ5752tSjwmf97AtbsXMrSBMi28GXlsgTqVYBV/142Ps65QfRdNj7uuUI2Pu7lumv9cf2jJVV/kU3G1nNfOFz6z30Bc+n/zxaNY3mbYJnAy8plCVS1gHttXzY+LnmgUD9l4+Oy/gr1UzY+7uXHCazuH2SSZTcUCkZ87v9hgUILA5/7vxegdtN/SreodEs4MoGXlXIJTA0AAB1sSURBVMvG41WAVf9eNj7uOUs2Pu55QjY+7uW66/0x/aMlp/1tNll2kPui4dR/7guYU/8fmH8RNbc2sjIBMoGXlcsSqGoB99q+bHycckFXfZWNj9P666qvsvFxLz9GYHX/I5ssu6+rIMRn/m/5O0y7WhT4zP+tf4fp4g0vwQDknBDoVYBV/14mEM464/oqG58T11xfZePjXq675n/eP1re839mk7EmrguFa7+5Llyu/b5v3ihqam1gYwJkW/iyclkCVS3gXtuXjY9rXnD6LRsf13Xo9Fs2Pu7lnwus7m+yteUTnKDDa3Bb/PlsnYWA1+C2+vPZ/mH9L2EAju4F8CrAqn8vE4j89cbtb9n48mOb29+y8XEv1133O/tHS/7ly9lkbB+3xWFCf7ktWBP6O23uSGpqPcTCBMi28GXlsgSqWsC9ti8bH/ccIRsf9/UoGx/3chYGAGf+h7fFn5+QuC9grv1fuuk1GADbJq8CrPr3MoHIX2/c/paNj+v6c/otGx/3cu0NAK3o/4VMsnw7t4VhSn+dhYDX8A4BCNaPLBxLKSulvQmQbeHLymUJVLWAe21fNj7ueUI2Pu55QzY+7uXaG4DDybLLuS8Szv3nvoA593/ltj/AACTirPcCyASCc24QfZeNj/P6E32XjY97ufYGIJuM/ZH7IuHcf+4LmHP/n667XvsEJNvCl5XLEqjXLXDVv5eNj3NugAEo/BRL2bzrUq61AeioLfsm9wXCvf+cBdSEvm/bv05rEyATeFm5LBGqFnCv7cvGxz0/yMbHfQ3Kxse9XGsDkE2WP859gXDvP/cFzL3/b65+DAaA8WEAmUBwzw+y8XFff7LxcS/X1gDQ2wP/MpuMHeK+QLj3n/sC5t7/e+eO0Pr2wLItfFm5LIF63QJX/XvZ+LjnB9n4uK8/2fi4l2trAA7Xlo/jvjhM6D/3BWxC/9/fOkfbvQAygZeVyxKoagH32r5sfNxzhGx83NefbHzcy7U1ANlkbCn3xWFC/7kvYBP6P2PZLTAATA8DyASCe46QjY/7+pONj3u5lgaAlpR/I5uMfcZ9cZjQf+4L2IT+T5pVQwea9mhpAmRb+LJyWQL1ugWu+vey8XHPEbLxcV9/svFxL9fSAGRqy2/ivjBM6T/3BWxK/+s0vTOgTOBl5bIEqlrAvbYvGx/3PCEbH/f1Jxsf93ItDUA2GavlvjBM6T/3BWxK/5+tuxF7ABgeBpAJBPc8IRsf9/UnGx/3cu0MAP2x/P9kk7HD3BeGKf3nvoBN6f/EWQn6pHGndiZAtoUvK5clUK9b4Kp/Lxsf9zwhGx/39ScbH/dy7QxApjZ2LfdFYVL/uS9gk/pft/k3MADM9gLIBIJ7rpCNj/v6k42Pe7l2BiBbWzaP+6Iwqf/cF7BJ/X/xnTthAGAASKf8IhNA7utPNj7u5VoZAJpf/j+yyViHTgEe9b5wX8Am9X/qnPOpJdWslQmQ7eKXlcsSqOpd+F7bl42Pe36RjY/7+pONj3u5VgYgW1s2lPuCMK3/3Bewaf3/cPfbMACM9gLIBIJ7vpCNj/v6k42Pe7lmBiD2APcFYVr/uS9g0/o/s/4JGAAYAG0OA8gEkPv6k42Pe7leBiBZ9q5pAsp9PNwXsGn9fyL5fRgAGAAYgJnVFMba5i7wsv5rYwBoWe+/ziZjWe6CaVr/w1hkaMN9MhN3BWxsPaiNCZAd45eVyxKU12Pwqn8vGx/3fCEbH/e1LRsf93JtDMDhJWUXcF8MJvaf+wI2sf/rd/0RBoDJXgCZQHDPGbLxcV9/svFxL9fGAGRryx/mvhhM7D/3BWxi/+etmwEDAAOgxWEAmQByX3+y8XEv18cAJGNLTBRQ7mPivoBN7L9OTweU7eKXlcsSqOpd+F7bl42Pe36QjY/7+pONj3u5TgagkftiMLH/3Bewif2/d84FZNmWFnsBZAIvK5clUK8CrPr3svFxzxmy8XFff7LxcS/XwgDQom/+M/eFYGr/uS9gU/u/t2ErDACDwwAygeCeN2Tj477+ZOPjXq6FATi8ODaK+0Iwtf/cF7Cp/V+9YzEMAAyA8vMAZALIff3Jxse9XAsDkK0tm2yqgHIfF/cFbGr//7D+lzAAMAAwAAHfD4C7wMv6r4cBSMbe4C6UpvbfVAHlPq6X35sMAwADAAMAA+ApD+hiAD40VUC5j4u7UJra/8cXX+Vp4cu2DNyWy07yk5XL2lF9Ep/X9mXj454fZOPjvv5k4+NerosBsLgvBFP7z30Bm9r/qXOHwwBgDwD2AGAPgKc8oNwA0NJ+XzVVPE0Yl6kCasK4Gpr3eVr8fmy9yLbwZeWyPnjdAlf9e9n4uOcI2fi4rzPZ+LiXKzcAmSVlA7gvApP7z30Bm9z/j/ethgHQfC+ATCC45w7Z+LivP9n4uJcrNwCHF5dfxH0RmNx/7gvY5P6v2DoPBgAGQOlhAJkAcl9/svFxL1duALLJ2K0mCyj3sXFfwCb3f/GG/4ABgAGAAQjwPADuAi/rv3oDsKTsMe4iaXL/TRZQ7mObVf8UDAAMAAwADEDJeUC5AcgkYy+ZLKDcx8ZdJE3u/29WPlDywpdtGbgtl53kJyuXtaP6JD6v7cvGxz0/yMbHff3Jxse9XLkByCbL3uK+CEzuP/cFbHL/f738LuUG4OSTTyaZyHdXfvDgwW7H4FWAVf9eJhDcc4dsfNzXn2x83MvVG4DaWJL7IjC5/9wXsMn9f7ru+m7FM4zk1K9fP08GYM2aNd2OQbWAe21fNgfcc4dsfNzXn2x83MvVG4Bk+QfcF4HJ/ee+gE3u/88WjetWPMNIToMGDfJkAJ5++ulux+BVgFX/XjYH3HOHbHzc159sfNzLlRuAw8nYFu6LwOT+c1/AJvf/4QWXdiueYSSnyy+/3JMBGDJkCLW2thYch2oB99q+bA645w7Z+LivP9n4uJcrNwDZZKyB+yIwuf/cF7DJ/X9g/kUFhTOsxDR58mRPBkCcH/Dcc88VHIdXAVb9e9k8cM8dsvFxX3+y8XEv18EApLkvApP7z30Bm9z/aXNHFhTOsBLT66+/7tkAiBMJFy9e3OVYVAu41/Zl88A9d8jGx339ycbHvRwGIBlTeh2t7gmA+wI2uf/3zBnWpWiGmZR27dpFJ510ki8mYMaMGccdDvAqwKp/L5sL3de/rH+y8XFff7LxcS/XwQDYsiBDuTqTwn0Bm9z/SbNqlBsAkQBHjRrl2QA4lwrW1NTQz3/+c6qvrydxiaBqAffavkwguOc22fi4rz/Z+LiX62AA8ChgDfdCZJaNpPQDY9knYK8JXOvfDzlDCwPw/PPP+2YAHCOA1xPB9ET+DPr27UvC1E6aNKnT1OpmGHQwAK3cXbBJ/c/UDaW2p8aRNaQS4q/5bWat88/WwgDs3buXRKKDaPMXLMxhcHPYs2dPuuuuu6i5uVmLdSvMiA4GoMUkAeU6lsyyKkq/cCVZ5w2E8Osu/E7/LqjSJpFMmTIFBsCALVYYgOAMgMN2zJgx2pgAHQxAE1fRNKHfmbpvUdtr/0rWyLMh/I6wcnkdPUQbA7B9+3bsBYABgAl0GQMTJkzQYu3qYAB2myCk7MZQO4Da37qS7DGDIfxcBD+/n5ecr0UScY5ripP3nK0cvAa/JQnGfBmLwwGy22A76yrIVx0MwBp24qnhSXuuGdaeRh3zryD7ynMh/PmCyu3vqy7RygCIO/oNHz4cJsDlViAEnK+A+zF34iZaQYq7m7rVGwA8DCik+xCUU/viy8i+YSSEn5vQF+ivff3VyhNIfpLZuHEjlZWVwQTABCAGJDEgboOdv37C/lu9AUjG3nC99cp5y1th3zuWXkz2+Isg/AWEVOtL/brr8/iblCeQrhLW7NmzSezi9GMrCXVEeyvZ5PkXV850tX7C/Ey5ATi8pPw5GIBgbvSTqRtF6fsuhfB3J6Kcy6bepTyBFEpWL730ki93CDRZADC2aJsbGIATTjghmyx7CAbAXwOQWXYuruXnLOxu+/7EI9oaAGEMhAnAnoBoixxMTuH5xyEAYQBqY3fAAPhjADLLBlP6V1fhWn63Asr9e6+8oLUBECZAHA6IxWI4HCA5HgyhLCyUprLBSYAnnHDC4dqyMTAA3gxAZqm4lv8qXMvPXdCL7f/82dobAGECxImBuDogegJnqnD7MS5cBnj07INMsm8FDECJBqDzWv6ryL4Y1/KzPZGvWNHP/f6Kd1kYAGECxCWC4j4BuGUwjIAfAsq9jokTJ2qxdpWfBEhv9/17GIAiDUBtP+qYN47sK3AtfySF/6gJsHds0yKJCIF3+3/Hjh10zz33wAjgkEBkDwuNHTuWWlpaXK8Zt2urlO8pNwCiA9lkrBEmwI0JOHot//UjcGZ/7pZwFN+ffw7ZlqVFEikl8ezbt4/EUwRHjx6NqwVgBiJhBsRuf7Hlr4v4i3WrhwGoja2AAejeAOBa/jhMT67R+f5YtuKfbxh2795Nb7zxBokHCo0bN44GDx5M/fr1o969e0dCGLjvzkb/Cx/WEYe8xNn+IrZ1uPVv/trTwwAkY6/BAHRtADJ1Iyl9P67lj/Ku/q7Gbk++3RgDkJ+U8Lf7QypgBVZeYkAXA3APDMCxBiCzbBi1Tb+crCGV2PLN3fLF+yPx8Mx0GIAizj3wkiTxW4isqTGghQE4XFs+EgbgiAHovJb/hStxLT+Evnvjt2AuDAAMAGIAMeApBrQwALTo1H+IugHAtfw4xt/Vrv5Cn9lbP/a08E3dosG4sLWOGHAfA1oYANGJbDK2N5ImANfyd7+liz0Bx/MZWc36CgAkaPcJGqzAKsgY0McA1MZmRcoAiGv5515O9hVDjk/wED0w6S4Gbr4WW//Y9YsYQAx4jgF9DMCS8inRMABHr+X/8QUQue5EDmWF4+Ppxz0v/CC3KlA3tloRAzxiQBsDcHhJ2QWmG4COpZeSfce3Cyd2iB7YuIgBe+liGABs/SEGEAOeY0AbA0BLTvvbbDKWNdEE4Fp+nOBX6GS+oj+vOYPsA/s9L3xsofHYQsM8YZ4CjIF2bQyA6Eg2GXvHJAOQWXYetT01Dtfyu9iqLVoIo1qnQXcADDCxwSBh6xgxII+Bg3oZgNrYvSYYgMyyKkr/chxZ556BXdpRFeqAxm1PfwiJTZ7YwAiMEAPyGPhINwNwDmcDgGv5sas/6D0Z9rIkEps8sYERGCEG5DEwRysDQOv7fDGbjKXYmYClFdT+1lVkXzwYW/wBbfkGLaws6j//bLIbG5HY5IkNjMAIMSCJAcuyHtPKAIjOZDndD0Bcyz//CrKvGArhh/AHHwO334CkJklqOK8AJ80hBtzFQDqdHqOdAcgky6/Tfw/AqdS+8HKyrhsefNKHsIKxEwOvvQwDAAOAGEAM+BEDn1mW9X+1MwC0tN9Xdb4csGPpxWTfcRFEyRElvIYTC+Lyv107/Vj4qAMCghhADLyrnfg7HcomYwt02wuQqRtF6Wljwkn2EFVwzosB+/qrkbSRtBEDiAFfYiCdTl/v6K12r5lk7BpdDEBm2TBcy58nRixOmDOtz6+84MvCx/FRd8dHwQmcDI4Bu7W19X9rJ/xOh6gu9nfZZKxDpQnI1A2m9PPjyBqKa/kh+IovbxS7/7dvhQHA1h9iADHgOQYsy/qZo7XavmaTsbkqDECm7kxqe+0qskacid3Qpm1Fcx3PLT/0vOgN3poBG4giYsB9DFjpdPoftBV+p2OHa8vHhWoAlsSs9ldGfGx/ZxCEn6tQGtpve9bvkeDcJziwAivEQIEYsCxrvKOxWr/S2wP/MpuMHQrBBGQyr5y61L6wYj92dSve1W2ogHuJK/uCQWQ1NCChFUho2LOBY/WIAdcxUE9EX9Ra+HM7l03GHg3QAHza8dvyd62LK3Z5SdD4LUxDoDHwk6kQf4g/YgAx4DUGrFQq9c1cfdX+ffuish7ZZOxTv01AZk75yvSVFRsCTdzYmsWhFB9iwF6z2uvCx+8hHoiBaMfAp+l0+jvaC35XHcwmY/N9MwDzy9emr+v/AYQfW+0cYsC+8ftI3NFO3Jh/zL/nGEin0zd1pa0sPju8JHahVwOQWRjb0nHn6W9bNfHPOCR+9BEGpTMG5s30vPhxfNT18VGwhtiaFgPidr+3sRD6Qp2k1y7+80wytqMkE7A4tqt9yul1Vk38U4gqRJVVDIy5gOyWFtMSEsYDkUUMhBMDKba7/fPNQCZZdmORBuBQ2+OnJe1zK9pYJX0fjhljvIYYnVdeRKIMJ1GCMzibFgP1ra2tp+TrKNu/acm/fDmbjO1xYQKs9mdPS1rnx1sghIYIYRRN0agELv2DKJkmShhP8DFt27Y9hYi+xFbsC3U8W1t2WzcGANfyR1EoDR2z/dzPkSyDT5ZgDMamxIBtWdZjLO7wV0jgZZ/Tiv5fySZj+/NMwKeZ3576rn0JruXHHg9D9niMGEz2/k9MSUwYB0QWMRBMDHxm2/a76XT6Bq0f7CMT9mLKs7WxOxwD0Hkt/7gBGyF8hgifoVvzxcan/ctfIGEGkzDBFVw5xkCHbduH0un0Rtu254oH+aTT6TGpVOr/FKOdRnyXlvT5q+zs8qX2Nf3XFJtY8X0YBQYxcPDgmWf+tRGLFYMAARAAAb8JWNWVNzNI5LgLHrboS4iBCt7X7Pq92FEfCIAACOQSoP79v2Al4ptgArBFb1IMpBLxLVRV9eXcWMd7EAABEACBPALp6vhok5I/xgIzI2I6L8zxJwiAAAiAQFcErOp4EsIJ4TQkBhZ3FeP4DARAAARAoAsCqaEDyqxEPGOIAJRwvBjib8jcZ61EZXkXIY6PQAAEQAAEChGwEvGfGCICMADRPWnwoULxjc9BAARAAAQKEKAR/b9iJeJbYQKwN4BpDOw4UFX1VwXCGx+DAAiAAAh0R8BOxC9gmvyx1R/drf7OubcHV57fXWyjDARAAARAQELASsRfhAnAXgBeMVD5kiSsUQwCIAACICAj0FjT/2+sRHwHLwGAYEd4vnY3n3XW38niGuUgAAIgAAIuCFiJihorEf8swqKCQwo8Dil8ZiUqznMR0vgKCIAACICAWwJ2ouJJGADsWdA5Buzq+HS38YzvgQAIgAAIuCRAw3p+yUpUrNRZANC3SBuUeho48C9dhjO+BgIgAAIgUAyBlqqBPa1EvAVCG2mh1e5wiJ2Ip1oHD+hdTCzjuyAAAiAAAkUSsGril8EAwABoFQPV8bFFhjG+DgIgAAIgUAoBq6biZ1oJAI8T1LTbcjZjDiseKyWG8RsQAAEQAIESCNDFF/+5lYjPNUNAsDXPdh6r4wupquovSghh/AQEQAAEQKBUAi3nDvx7OxH/mK14YK8B9z0SW1ur+v/vUuMXvwMBEAABEPBA4OhTA5tgArAXIdQYqIk3phKVfTyELn4KAiAAAiDglUCquuIcKxFvD1UAsPXOfevdS/87rCEVCa9xi9+DAAiAAAj4QCCVqBhjJeKfwgRgT0DAMSDu9Pc9H0IWVYAACIAACPhFwEpU3BZw8vey1YjfmrDXpLryZr/iFfWAAAiAAAj4SCBVE58CE4C9AEHEgF1TcbePoYqqQAAEQAAE/CZgJeIPBiEAqDPSxuJRv+MU9YEACIAACPhMgE444c/EQ1kg2JEWbP8OuVTHf+pziKI6EAABEACBIAmkEpVTYQJgAjzGwINBxijqBgEQAAEQCIiAVR2/w6MA+LclacJJcNEaA8Q/oHWJakEABEAgFAJHrw74DEYAewNcxsBnVk38llCCE42AAAiAAAgESyBVU3mRlYi3uRQAbPVHa0s/d747xNMmg41G1A4CIAACIBAqgVSicrCViOO2wdEV91yh7+p9U2pIxaBQgxKNgQAIgAAIhENAPDsglYhvwZ4AHA7IjQHxUCnc2z+cNYhWQAAEQEAZAfEUQStRuSBXAPA+0oagNjWs31eVBSQaBgEQAAEQCI+AeIa7lah8HMIfaeEnK1HxmIiF8CIPLYEACIAACGhBIFVT8W2cFxBJE9CKk/20WILoBAiAAAioI9AypLKXlYh/gL0BkTEC61ODK/qqizi0DAIgAAIgoA0Bqqr6sp2oeNJKxHG/AHOvEvjMTlQ+JeZam8BDR0AABEAABPQgYCUqh1iJ+C7sDTBub8AndnXFCD2iDL0AARAAARDQkkDzWWf9nVUdfxkmwBQTUPGquPJDy2BDp0AABEAABPQjYA+uPN9KxLfBCHA1AhV7UonK7+gXWegRCIAACICA9gRoRP+vpGriU6xEPAMjwMYIfJpKVDxz8Mwz/1r7AEMHQQAEQAAE9CZgDY6faiUqlsAEaG8Caq0hFafpHU3oHQiAAAiAADsC4kQycdtYGAHtjMBOqyY+jk444c/YBRU6DAIgAAIgwIMADev5JSsRv9Wqjh+AEVBuBBqsRPx2XNrHY+2glyAAAiBgBAEaWv4/rOr4HbiTYPgmwE7EU1Yi/mBT1Wl/a0QwYRAgAAIgAAL8CIjLBu3q+GQrERdbo109Zhaf+cflUCpRORWX9fFbJ+gxCIAACBhLoHOPQKLyJisR3wEj4LsR2ieuxmis6f83xgYQBgYCIAACIMCbAPXv/4VUomKMlYgvhRHwZgTs6spl4qE9ginvqEDvQQAEQAAEIkXASlSWpxLxp61EvAVmwLUZaD3CrLI8UsGCwYIACIAACJhHQJylnqqOX2wl4jOtRDwLM3CcGfhUbO3bicprD1RV/ZV5EYARgQAIgAAIRJ5AuqryG1ai8iY7Ea+zEvFPI2wGPj3K4FZ7yJlfj3xgAAAIgAAIgEB0CNjn9v9aqqbiOqsmPttKxO0ImIG0lYjPtRPxH1hVFf8vOjONkYIACIAACIBAAQLiMIFVXTnUqo7/1ErEV1mJ+GEDDMFnViJeb9VUPCwetYwb9hSYfHwMAiAAAiAAAg6BQ8Mq/6ddPWBYKhG/z6qOL7Rq4o0MDIE42XGRuFZf9B036nFmE68gAAIgAAIg4IFAe6LiJPGI21Si4h6rOv5fViL+wX/fClfsVg/7ZkPicEW9nah4XdwEKV0dHy36hnvxe5hc/BQEQAAEQAAEiiEgRFecWNg6eMCZR+4/UHGblah83EpUviTOLUgl4m9bifjGzhsUib0Ix+9JyHZ+duTznVYivt6qiS+3EhV/6KwjEX/UqonfYiUqvtuaiJ+NE/aKmR18FwRAAARAAARAAARAAARAAARAAARAAARAAARAAARAAARAAARAAARAAARAAARAAARAAARAAARAAARAAARAAARAAARAAARAAARAAARAAARAAARAAARAAARAAARAAARAAARAAARAAARAAARAAARAAARAAARAAARAAARAAARAAARAAARAAARAAARAAARAAARAAARAAARAAARAAARAAARAAARAAARAAARAAARAAARAAARAAARAAARAAARAAARAAARAAARAAARAAARAAARAAARAAARAAARAAARAAARAAARAAARAAARAAARAAARAAARAAARAAARAAARAAARAAARAAARAAARAAARAAARAAARAAARAAARAAARAAARAAARAAARAAARAAARAAARAAARAAARAAARAAARAAARAAARAAARAAARAAARAAARAAARAAARAAARAAARAAARAAARAAARAAARAAARAAARAAARAAARAAARAAARAAARAAARAAARAAARAAARAAARAAARAAARAAARAAARAAARAAARAAARAAARAAARAAARAAARAAARAAARAAARAAARAAARAAARAAARAAARAAARAAARAAARAAARAAARAAARAAARAAARAAARAAARAAARAAARAAARAAARAAARAAARAAARAAARAAARAAARAAARAAARAAARAAARAAARAAARAAARAAARAAARAAARAAARAAARAAARAAARAAARAAARAAARAAARAAARAAARAAARAAARAAARAAARAAARAAARAAARAAARAAARAAARAAARAAARAAARAAARAAARAAARAAARAAARAAARAAARAAARAAARAAARAAARAAARAAARAAARAAARAAARAAARAAARAAARAAARAAARAAARAAARAAARAAARAQAWB/w8qG3z8ehN8mgAAAABJRU5ErkJggg==;" vertex="1" parent="23oFvKBoJjDTvwnKRW_A-29">
          <mxGeometry x="8.97391304347826" y="3.3521739130434787" width="68.29565217391304" height="68.29565217391304" as="geometry" />
        </mxCell>
        <mxCell id="23oFvKBoJjDTvwnKRW_A-33" style="edgeStyle=orthogonalEdgeStyle;rounded=0;orthogonalLoop=1;jettySize=auto;html=1;entryX=-0.001;entryY=0.508;entryDx=0;entryDy=0;entryPerimeter=0;exitX=0.5;exitY=0;exitDx=0;exitDy=0;curved=1;endArrow=oval;endFill=1;" edge="1" parent="1" source="23oFvKBoJjDTvwnKRW_A-28">
          <mxGeometry relative="1" as="geometry">
            <mxPoint x="1214.904" y="830.288" as="targetPoint" />
            <Array as="points">
              <mxPoint x="1165" y="830" />
            </Array>
          </mxGeometry>
        </mxCell>
        <mxCell id="23oFvKBoJjDTvwnKRW_A-34" value="&lt;span style=&quot;color: rgb(0, 0, 0); font-family: Helvetica; font-size: 10px; font-style: normal; font-variant-ligatures: normal; font-variant-caps: normal; font-weight: 700; letter-spacing: normal; orphans: 2; text-align: left; text-indent: 0px; text-transform: none; widows: 2; word-spacing: 0px; -webkit-text-stroke-width: 0px; white-space: nowrap; background-color: rgb(251, 251, 251); text-decoration-thickness: initial; text-decoration-style: initial; text-decoration-color: initial; display: inline !important; float: none;&quot;&gt;Data visualization&lt;/span&gt;&lt;div style=&quot;forced-color-adjust: none; color: rgb(0, 0, 0); font-family: Helvetica; font-size: 10px; font-style: normal; font-variant-ligatures: normal; font-variant-caps: normal; font-weight: 700; letter-spacing: normal; orphans: 2; text-align: left; text-indent: 0px; text-transform: none; widows: 2; word-spacing: 0px; -webkit-text-stroke-width: 0px; white-space: nowrap; background-color: rgb(251, 251, 251); text-decoration-thickness: initial; text-decoration-style: initial; text-decoration-color: initial;&quot;&gt;by NRQL&lt;/div&gt;" style="text;whiteSpace=wrap;html=1;" vertex="1" parent="1">
          <mxGeometry x="1222.9958620689656" y="810.0034482758621" width="112" height="48" as="geometry" />
        </mxCell>
        <mxCell id="23oFvKBoJjDTvwnKRW_A-38" value="P Y T H O N&amp;nbsp; &amp;nbsp; A G E N T" style="text;html=1;align=center;verticalAlign=middle;whiteSpace=wrap;rounded=0;rotation=90;fontColor=default;fontFamily=Tahoma;labelBorderColor=none;textOpacity=20;" vertex="1" parent="1">
          <mxGeometry x="922" y="1003.5" width="174" height="30" as="geometry" />
        </mxCell>
      </root>
    </mxGraphModel>
  </diagram>
</mxfile>
